<svg width="72" height="20" viewBox="0 0 72 20" fill="none" xmlns="http://www.w3.org/2000/svg">
<path d="M-0.000781193 19.6396V5.23965H2.65922V6.91965C2.93922 6.34631 3.33255 5.88631 3.83922 5.53965C4.35922 5.19298 5.07255 5.01965 5.97922 5.01965C6.69922 5.01965 7.36589 5.16631 7.97922 5.45965C8.60589 5.73965 9.15255 6.13298 9.61922 6.63965C10.0859 7.13298 10.4526 7.71298 10.7192 8.37965C10.9859 9.03298 11.1192 9.73298 11.1192 10.4796C11.1192 11.4796 10.8859 12.393 10.4192 13.2196C9.96589 14.033 9.35255 14.6863 8.57922 15.1796C7.80589 15.6596 6.93922 15.8996 5.97922 15.8996C5.08589 15.8996 4.38589 15.7396 3.87922 15.4196C3.37255 15.0863 2.97922 14.6463 2.69922 14.0996V19.6396H-0.000781193ZM5.53922 13.4596C6.11255 13.4596 6.61255 13.3196 7.03922 13.0396C7.47922 12.7596 7.81922 12.393 8.05922 11.9396C8.29922 11.473 8.41922 10.9796 8.41922 10.4596C8.41922 9.91298 8.29922 9.41298 8.05922 8.95965C7.81922 8.50631 7.47922 8.14631 7.03922 7.87965C6.61255 7.59965 6.11255 7.45965 5.53922 7.45965C4.95255 7.45965 4.43922 7.59965 3.99922 7.87965C3.55922 8.15965 3.21922 8.52631 2.97922 8.97965C2.73922 9.43298 2.61922 9.93298 2.61922 10.4796C2.61922 11.013 2.73922 11.5063 2.97922 11.9596C3.21922 12.413 3.55922 12.7796 3.99922 13.0596C4.43922 13.3263 4.95255 13.4596 5.53922 13.4596ZM20.9234 12.6796L21.2434 12.8796C20.2434 14.7596 19.1834 15.8796 18.3834 15.8796C17.5834 15.8796 17.7234 14.7996 17.9034 13.9996L18.3834 11.7396C17.1434 14.3996 15.3034 15.8796 13.6434 15.8796C12.4034 15.8796 11.6834 14.8996 11.6834 13.0596C11.6834 9.47965 14.3834 4.91965 17.9434 4.91965C18.8234 4.91965 19.4834 5.15965 19.8634 5.69965L20.4234 5.03965H20.8234L18.9634 13.7596C18.9034 14.0396 18.7434 14.6996 19.1034 14.6996C19.5034 14.6996 20.2634 13.7396 20.9234 12.6796ZM14.2434 15.0796C15.9034 15.0796 18.2634 12.2596 19.1234 8.27965C19.1834 7.99965 19.2234 7.73965 19.2234 7.33965C19.2234 6.21965 18.8834 5.43965 17.6634 5.43965C15.1234 5.43965 12.8034 9.43965 12.8034 12.6596C12.8034 14.2596 13.3034 15.0796 14.2434 15.0796ZM31.1086 12.6796L31.4286 12.8796C30.4286 14.7596 29.3486 15.8796 28.5486 15.8796C27.8686 15.8796 27.8286 15.1596 28.0686 13.9996L28.9886 9.67965C27.4686 13.3996 25.3686 15.8796 23.4286 15.8796C21.7286 15.8796 22.0286 14.0196 22.5086 11.9396L23.6286 7.03965C23.7486 6.47965 23.8686 5.99965 23.5486 5.99965C23.2286 5.99965 22.7286 6.65965 22.0686 7.67965L21.7686 7.47965C22.6886 5.75965 23.4886 4.91965 24.1686 4.91965C24.8886 4.91965 24.9886 5.59965 24.7086 6.79965L23.4886 12.0796C23.1286 13.6396 22.8886 14.9196 23.9886 14.9196C25.7286 14.9196 28.6686 11.0796 29.8886 5.37965L30.7886 5.11965H30.9486L29.1286 13.7596C29.0686 14.0396 28.9086 14.6996 29.2686 14.6996C29.6686 14.6996 30.4486 13.7396 31.1086 12.6796ZM32.3848 15.8796C31.5848 15.8796 31.7248 14.7996 31.9048 13.9996L34.3448 2.51965C34.6248 1.23965 34.3648 0.799648 33.7248 0.679648L33.7648 0.439647L35.7248 -0.000352859H35.8848L32.9648 13.7596C32.9048 14.0396 32.7448 14.6996 33.1048 14.6996C33.5048 14.6996 34.2648 13.7396 34.9248 12.6796L35.2448 12.8796C34.2448 14.7596 33.1848 15.8796 32.3848 15.8796ZM36.9116 15.6396V7.53965H35.4516V5.23965H36.9116V4.53965C36.9116 3.48632 37.2249 2.63965 37.8516 1.99965C38.4782 1.35965 39.3182 1.03965 40.3716 1.03965H41.4916V3.33965H40.7916C40.0049 3.33965 39.6116 3.75298 39.6116 4.57965V5.23965H41.7316V7.53965H39.6116V15.6396H36.9116ZM48.7359 4.91965C48.9959 4.91965 49.2759 4.93965 49.5359 5.07965L48.9759 6.31965H48.7759C48.5759 6.23965 48.4159 6.19965 48.1759 6.19965C46.1559 6.19965 44.3359 11.1596 43.3759 15.6396H42.3759L44.1959 7.03965C44.3159 6.47965 44.4359 5.99965 44.0759 5.99965C43.7759 5.99965 43.2959 6.65965 42.6359 7.67965L42.3159 7.47965C43.2359 5.75965 44.0559 4.91965 44.7759 4.91965C45.4559 4.91965 45.4959 5.63965 45.2559 6.79965L44.5359 10.1196C45.6159 7.21965 47.0759 4.91965 48.7359 4.91965ZM51.8469 15.8796C49.7669 15.8796 48.4469 14.3596 48.4469 11.8796C48.4469 8.59965 50.7269 4.91965 53.6869 4.91965C55.7669 4.91965 57.0869 6.43965 57.0869 8.91965C57.0869 12.1996 54.8069 15.8796 51.8469 15.8796ZM51.8869 15.3596C54.3669 15.3596 56.0069 11.5196 56.0069 8.51965C56.0069 6.55965 55.1269 5.43965 53.6469 5.43965C51.1669 5.43965 49.5269 9.27965 49.5269 12.2796C49.5269 14.2396 50.4069 15.3596 51.8869 15.3596ZM59.6619 15.8796C58.4619 15.8796 57.3819 15.3596 56.9419 14.7996L57.4219 13.4796H57.6619C57.9419 14.5996 58.8819 15.3596 60.0819 15.3596C61.3219 15.3596 62.1619 14.3796 62.1619 13.1996C62.1619 12.0796 61.5019 11.5596 60.6219 10.8396L60.0619 10.3796C59.3419 9.77965 58.6819 9.21965 58.6819 7.97965C58.6819 6.25965 59.9819 4.91965 61.7419 4.91965C62.8619 4.91965 63.7419 5.43965 64.1819 5.79965L63.8419 7.07965H63.6019C63.2819 6.17965 62.6019 5.43965 61.4819 5.43965C60.2219 5.43965 59.6219 6.49965 59.6219 7.49965C59.6219 8.51965 60.0819 8.93965 60.7819 9.51965L61.3419 9.97965C62.4619 10.8996 63.1219 11.5196 63.1219 12.7596C63.1219 14.5196 61.6219 15.8796 59.6619 15.8796ZM70.7625 5.87965H67.3825L65.8025 13.2796C65.6425 14.0396 65.6025 14.8396 66.2225 14.8396C66.8425 14.8396 68.1225 13.6196 69.0625 12.0796L69.3825 12.2796C68.2425 14.4196 66.5425 15.8796 65.5025 15.8796C64.5625 15.8796 64.4825 14.7196 64.7425 13.5196L66.3825 5.87965H65.3225L65.4225 5.39965L65.7225 5.27965C66.5425 4.95965 67.0825 4.23965 67.8025 2.71965H68.0425L67.5225 5.15965H71.1625L70.7625 5.87965Z" fill="white"/>
</svg>
