<svg width="195" height="27" viewBox="0 0 195 27" fill="none" xmlns="http://www.w3.org/2000/svg">
<path d="M-0.000156127 25.5508V0.52578H11.7248C17.1673 0.52578 20.9911 3.91203 20.9911 8.72453C20.9911 13.5458 17.1498 16.9583 11.7248 16.9583H4.60234V25.5508H-0.000156127ZM4.60234 12.9683H11.4273C14.4811 12.9683 16.3886 11.3408 16.3886 8.72453C16.3886 6.12578 14.5073 4.51578 11.4886 4.51578H4.60234V12.9683ZM23.122 25.5508H18.327L27.3045 0.52578H33.937L42.792 25.5508H37.9007L35.9232 19.662H25.1257L23.122 25.5508ZM26.4557 15.742H34.6107L30.5595 3.64953L26.4557 15.742ZM42.7422 15.2258V0.52578H47.3447V15.0333C47.3447 19.5833 49.576 21.9983 53.5397 21.9983C57.4947 21.9983 59.7347 19.5833 59.7347 15.0333V0.52578H64.3372V15.2258C64.3372 21.9458 60.0235 26.0758 53.5397 26.0758C47.0472 26.0758 42.7422 21.9458 42.7422 15.2258ZM66.5231 0.52578H71.1256V21.4908H83.2531V25.5508H66.5231V0.52578ZM102.069 0.52578V4.58578H89.5744V11.4458H101.037V15.4358H89.5744V25.5508H84.9719V0.52578H102.069ZM108.331 25.5508H103.728V0.52578H115.97C121.272 0.52578 124.728 3.51828 124.728 7.98953C124.728 11.9358 121.99 14.5433 117.781 14.6658C119.697 14.8058 121.193 16.162 122.287 18.5945L125.402 25.5508H120.318L117.186 18.612C116.311 16.6783 115.313 16.0833 112.837 16.0833H108.331V25.5508ZM108.331 12.1458H115.41C118.367 12.1458 120.117 10.702 120.117 8.25203C120.117 5.84578 118.428 4.50703 115.401 4.50703H108.331V12.1458ZM126.221 13.0383C126.221 5.23328 131.121 0.000780582 138.209 0.000780582C145.288 0.000780582 150.205 5.23328 150.205 13.0383C150.205 20.8433 145.288 26.0758 138.209 26.0758C131.121 26.0758 126.221 20.8433 126.221 13.0383ZM130.841 13.0383C130.841 18.717 133.563 21.9983 138.209 21.9983C142.846 21.9983 145.585 18.717 145.585 13.0383C145.585 7.35953 142.846 4.07828 138.209 4.07828C133.563 4.07828 130.841 7.35953 130.841 13.0383ZM162.036 0.000780582C168.231 0.000780582 172.177 3.12453 172.177 8.24328H167.732C167.732 5.58328 165.414 3.91203 161.984 3.91203C159.114 3.91203 156.261 5.08453 156.261 7.57828C156.261 9.83578 158.492 10.212 162.316 10.7808L163.48 10.947C167.689 11.577 173.052 12.3908 173.052 18.2095C173.052 23.4333 168.712 26.0758 162.307 26.0758C155.334 26.0758 151.309 22.952 151.309 17.6058H155.754C155.754 20.4583 158.247 22.1645 162.264 22.1645C165.694 22.1645 168.52 20.9133 168.52 18.227C168.52 15.7508 166.227 15.3833 162.727 14.8758L161.257 14.657C157.049 14.0445 151.729 13.292 151.729 7.77953C151.729 2.66078 156.305 0.000780582 162.036 0.000780582ZM194.112 0.52578V4.58578H185.975V25.5508H181.372V4.58578H173.235V0.52578H194.112Z" fill="white"/>
</svg>
