<svg width="62" height="34" viewBox="0 0 62 34" fill="none" xmlns="http://www.w3.org/2000/svg">
<path d="M9.4065 0.844999H12.7513L8.3865 8.66925V13H5.25V8.66925L0.90225 0.844999H4.315L6.8395 5.80475L9.4065 0.844999ZM11.4416 7.14775C11.4416 4.8145 13.2053 3.37375 16.0656 3.37375C18.9726 3.37375 20.6683 4.86975 20.6683 7.441V13H17.7103V10.6625C17.3108 12.2647 16.0061 13.255 14.2466 13.255C12.3978 13.255 11.1653 12.1585 11.1653 10.518C11.1653 8.71175 12.6443 7.65775 15.1773 7.65775H17.7103V7.441C17.7103 6.2765 17.0983 5.60075 15.9933 5.60075C14.8883 5.60075 14.3868 6.17875 14.3868 7.14775H11.4416ZM17.7103 9.25575H15.5811C14.6333 9.25575 14.1361 9.57875 14.1361 10.195C14.1361 10.807 14.6418 11.164 15.5216 11.164C16.7626 11.164 17.7103 10.4585 17.7103 9.5405V9.25575ZM25.7752 3.37375C28.6355 3.37375 30.3015 4.636 30.3015 6.72275H27.3732C27.3732 5.894 26.8462 5.42225 25.8517 5.42225C25.0017 5.42225 24.4152 5.7665 24.4152 6.28075C24.4152 6.94375 25.2142 7.07975 26.23 7.25825L26.8547 7.36875C28.338 7.628 30.5565 8.02325 30.5565 10.2502C30.5565 12.1585 28.916 13.255 26.0175 13.255C22.9617 13.255 21.317 12.031 21.317 9.83375H24.2452C24.2452 10.7092 24.819 11.181 25.992 11.181C26.9992 11.181 27.6282 10.841 27.6282 10.2885C27.6282 9.6 26.8972 9.464 25.6987 9.2515L25.074 9.141C23.714 8.89875 21.4912 8.5035 21.4912 6.336C21.4912 4.4915 23.0935 3.37375 25.7752 3.37375ZM34.2342 0.42V2.698H31.2422V0.42H34.2342ZM34.2172 3.62875V13H31.2592V3.62875H34.2172ZM38.1352 8.15925V13H35.1772V3.62875H38.1352V6.4975C38.5007 4.44475 39.6014 3.37375 41.3354 3.37375C43.2989 3.37375 44.2977 4.75075 44.2977 7.45375V13H41.3397V8.09125C41.3397 6.62925 40.8382 5.9195 39.8097 5.9195C38.7302 5.9195 38.1352 6.693 38.1352 8.15925ZM57.1692 0.844999H60.5139L56.1492 8.66925V13H53.0127V8.66925L48.6649 0.844999H52.0777L54.6022 5.80475L57.1692 0.844999ZM61.7495 10.042V13H58.8935V10.042H61.7495ZM1.5185 17.845H7.68525C10.3203 17.845 11.9438 18.95 11.9438 20.888C11.9438 22.4562 10.8813 23.5315 9.41925 23.7015C11.1745 23.863 12.458 25.0487 12.458 26.7232C12.458 28.7675 10.5498 30 7.7575 30H1.5185V17.845ZM7.3155 22.8005C8.23775 22.8005 8.837 22.3287 8.837 21.483C8.837 20.6585 8.2675 20.242 7.31125 20.242H4.655V22.8005H7.3155ZM4.655 27.603H7.60025C8.7265 27.603 9.31725 27.1907 9.31725 26.2812C9.31725 25.3717 8.7265 24.9595 7.6045 24.9595H4.655V27.603ZM13.2678 24.1477C13.2678 21.8145 15.0315 20.3737 17.8918 20.3737C20.7988 20.3737 22.4945 21.8697 22.4945 24.441V30H19.5365V27.6625C19.137 29.2647 17.8323 30.255 16.0728 30.255C14.224 30.255 12.9915 29.1585 12.9915 27.518C12.9915 25.7117 14.4705 24.6577 17.0035 24.6577H19.5365V24.441C19.5365 23.2765 18.9245 22.6007 17.8195 22.6007C16.7145 22.6007 16.213 23.1787 16.213 24.1477H13.2678ZM19.5365 26.2557H17.4073C16.4595 26.2557 15.9623 26.5787 15.9623 27.195C15.9623 27.807 16.468 28.164 17.3478 28.164C18.5888 28.164 19.5365 27.4585 19.5365 26.5405V26.2557ZM29.3617 20.6287H32.4175L28.992 30.102C28.159 32.4395 26.7437 33.4765 24.4062 33.4765C23.909 33.4765 23.3692 33.4255 22.7827 33.3235V30.986C23.2162 31.0498 23.5732 31.0795 23.892 31.0795C24.7845 31.0795 25.3795 30.8415 25.8215 30.2805L22.396 20.6287H25.524L27.428 27.7857L29.3617 20.6287ZM32.1679 25.3122C32.1679 22.3032 34.1782 20.3737 37.0044 20.3737C39.8349 20.3737 41.8409 22.3032 41.8409 25.3122C41.8409 28.317 39.8349 30.255 37.0044 30.255C34.1782 30.255 32.1679 28.317 32.1679 25.3122ZM35.1514 25.3122C35.1514 26.8677 35.8229 27.7092 37.0087 27.7092C38.1944 27.7092 38.8574 26.8677 38.8574 25.3122C38.8574 23.7567 38.1944 22.9195 37.0087 22.9195C35.8229 22.9195 35.1514 23.7567 35.1514 25.3122ZM45.5561 17.42V30H42.5981V17.42H45.5561Z" fill="white"/>
</svg>
